<svg id="visual" viewBox="0 0 1920 700" width="1920" height="700" xmlns="http://www.w3.org/2000/svg" xmlns:xlink="http://www.w3.org/1999/xlink" version="1.1"><path d="M0 475L45.7 472.2C91.3 469.3 182.7 463.7 274.2 464.8C365.7 466 457.3 474 548.8 480.7C640.3 487.3 731.7 492.7 823 498.3C914.3 504 1005.7 510 1097 495.8C1188.3 481.7 1279.7 447.3 1371.2 439.7C1462.7 432 1554.3 451 1645.8 460C1737.3 469 1828.7 468 1874.3 467.5L1920 467L1920 701L1874.3 701C1828.7 701 1737.3 701 1645.8 701C1554.3 701 1462.7 701 1371.2 701C1279.7 701 1188.3 701 1097 701C1005.7 701 914.3 701 823 701C731.7 701 640.3 701 548.8 701C457.3 701 365.7 701 274.2 701C182.7 701 91.3 701 45.7 701L0 701Z" fill="#ff6f61"></path><path d="M0 479L45.7 485C91.3 491 182.7 503 274.2 507C365.7 511 457.3 507 548.8 514.2C640.3 521.3 731.7 539.7 823 532.3C914.3 525 1005.7 492 1097 486.3C1188.3 480.7 1279.7 502.3 1371.2 506.5C1462.7 510.7 1554.3 497.3 1645.8 486.8C1737.3 476.3 1828.7 468.7 1874.3 464.8L1920 461L1920 701L1874.3 701C1828.7 701 1737.3 701 1645.8 701C1554.3 701 1462.7 701 1371.2 701C1279.7 701 1188.3 701 1097 701C1005.7 701 914.3 701 823 701C731.7 701 640.3 701 548.8 701C457.3 701 365.7 701 274.2 701C182.7 701 91.3 701 45.7 701L0 701Z" fill="#e95c7b"></path><path d="M0 589L45.7 588.7C91.3 588.3 182.7 587.7 274.2 583C365.7 578.3 457.3 569.7 548.8 556.8C640.3 544 731.7 527 823 531.7C914.3 536.3 1005.7 562.7 1097 573.2C1188.3 583.7 1279.7 578.3 1371.2 576.5C1462.7 574.7 1554.3 576.3 1645.8 578C1737.3 579.7 1828.7 581.3 1874.3 582.2L1920 583L1920 701L1874.3 701C1828.7 701 1737.3 701 1645.8 701C1554.3 701 1462.7 701 1371.2 701C1279.7 701 1188.3 701 1097 701C1005.7 701 914.3 701 823 701C731.7 701 640.3 701 548.8 701C457.3 701 365.7 701 274.2 701C182.7 701 91.3 701 45.7 701L0 701Z" fill="#c5548d"></path><path d="M0 574L45.7 581.8C91.3 589.7 182.7 605.3 274.2 609.8C365.7 614.3 457.3 607.7 548.8 607.2C640.3 606.7 731.7 612.3 823 607.2C914.3 602 1005.7 586 1097 577.8C1188.3 569.7 1279.7 569.3 1371.2 571.3C1462.7 573.3 1554.3 577.7 1645.8 585.8C1737.3 594 1828.7 606 1874.3 612L1920 618L1920 701L1874.3 701C1828.7 701 1737.3 701 1645.8 701C1554.3 701 1462.7 701 1371.2 701C1279.7 701 1188.3 701 1097 701C1005.7 701 914.3 701 823 701C731.7 701 640.3 701 548.8 701C457.3 701 365.7 701 274.2 701C182.7 701 91.3 701 45.7 701L0 701Z" fill="#985395"></path><path d="M0 650L45.7 646.2C91.3 642.3 182.7 634.7 274.2 632.5C365.7 630.3 457.3 633.7 548.8 631.7C640.3 629.7 731.7 622.3 823 624C914.3 625.7 1005.7 636.3 1097 644.7C1188.3 653 1279.7 659 1371.2 660.8C1462.7 662.7 1554.3 660.3 1645.8 655.3C1737.3 650.3 1828.7 642.7 1874.3 638.8L1920 635L1920 701L1874.3 701C1828.7 701 1737.3 701 1645.8 701C1554.3 701 1462.7 701 1371.2 701C1279.7 701 1188.3 701 1097 701C1005.7 701 914.3 701 823 701C731.7 701 640.3 701 548.8 701C457.3 701 365.7 701 274.2 701C182.7 701 91.3 701 45.7 701L0 701Z" fill="#665191"></path></svg>