<svg id="visual" viewBox="0 0 1920 700" width="1920" height="700" xmlns="http://www.w3.org/2000/svg" xmlns:xlink="http://www.w3.org/1999/xlink" version="1.1"><path d="M0 330L35.5 350C71 370 142 410 213.2 415.7C284.3 421.3 355.7 392.7 426.8 391C498 389.3 569 414.7 640 428C711 441.3 782 442.7 853.2 432C924.3 421.3 995.7 398.7 1066.8 379.2C1138 359.7 1209 343.3 1280 354.5C1351 365.7 1422 404.3 1493.2 401.7C1564.3 399 1635.7 355 1706.8 335.2C1778 315.3 1849 319.7 1884.5 321.8L1920 324L1920 701L1884.5 701C1849 701 1778 701 1706.8 701C1635.7 701 1564.3 701 1493.2 701C1422 701 1351 701 1280 701C1209 701 1138 701 1066.8 701C995.7 701 924.3 701 853.2 701C782 701 711 701 640 701C569 701 498 701 426.8 701C355.7 701 284.3 701 213.2 701C142 701 71 701 35.5 701L0 701Z" fill="#ff6f61"></path><path d="M0 403L35.5 399.5C71 396 142 389 213.2 401.2C284.3 413.3 355.7 444.7 426.8 447.8C498 451 569 426 640 426.8C711 427.7 782 454.3 853.2 469.7C924.3 485 995.7 489 1066.8 478.3C1138 467.7 1209 442.3 1280 423.5C1351 404.7 1422 392.3 1493.2 401.7C1564.3 411 1635.7 442 1706.8 461.3C1778 480.7 1849 488.3 1884.5 492.2L1920 496L1920 701L1884.5 701C1849 701 1778 701 1706.8 701C1635.7 701 1564.3 701 1493.2 701C1422 701 1351 701 1280 701C1209 701 1138 701 1066.8 701C995.7 701 924.3 701 853.2 701C782 701 711 701 640 701C569 701 498 701 426.8 701C355.7 701 284.3 701 213.2 701C142 701 71 701 35.5 701L0 701Z" fill="#e95c7b"></path><path d="M0 531L35.5 517.7C71 504.3 142 477.7 213.2 475.7C284.3 473.7 355.7 496.3 426.8 510.8C498 525.3 569 531.7 640 523.3C711 515 782 492 853.2 475.2C924.3 458.3 995.7 447.7 1066.8 454.8C1138 462 1209 487 1280 499.7C1351 512.3 1422 512.7 1493.2 499.8C1564.3 487 1635.7 461 1706.8 458.3C1778 455.7 1849 476.3 1884.5 486.7L1920 497L1920 701L1884.5 701C1849 701 1778 701 1706.8 701C1635.7 701 1564.3 701 1493.2 701C1422 701 1351 701 1280 701C1209 701 1138 701 1066.8 701C995.7 701 924.3 701 853.2 701C782 701 711 701 640 701C569 701 498 701 426.8 701C355.7 701 284.3 701 213.2 701C142 701 71 701 35.5 701L0 701Z" fill="#c5548d"></path><path d="M0 596L35.5 596.8C71 597.7 142 599.3 213.2 585.7C284.3 572 355.7 543 426.8 538.8C498 534.7 569 555.3 640 554.2C711 553 782 530 853.2 525.2C924.3 520.3 995.7 533.7 1066.8 537.3C1138 541 1209 535 1280 540.2C1351 545.3 1422 561.7 1493.2 568.3C1564.3 575 1635.7 572 1706.8 563.8C1778 555.7 1849 542.3 1884.5 535.7L1920 529L1920 701L1884.5 701C1849 701 1778 701 1706.8 701C1635.7 701 1564.3 701 1493.2 701C1422 701 1351 701 1280 701C1209 701 1138 701 1066.8 701C995.7 701 924.3 701 853.2 701C782 701 711 701 640 701C569 701 498 701 426.8 701C355.7 701 284.3 701 213.2 701C142 701 71 701 35.5 701L0 701Z" fill="#985395"></path><path d="M0 645L35.5 645.3C71 645.7 142 646.3 213.2 642.3C284.3 638.3 355.7 629.7 426.8 621.7C498 613.7 569 606.3 640 600.3C711 594.3 782 589.7 853.2 587.5C924.3 585.3 995.7 585.7 1066.8 589.8C1138 594 1209 602 1280 605.2C1351 608.3 1422 606.7 1493.2 608C1564.3 609.3 1635.7 613.7 1706.8 616.7C1778 619.7 1849 621.3 1884.5 622.2L1920 623L1920 701L1884.5 701C1849 701 1778 701 1706.8 701C1635.7 701 1564.3 701 1493.2 701C1422 701 1351 701 1280 701C1209 701 1138 701 1066.8 701C995.7 701 924.3 701 853.2 701C782 701 711 701 640 701C569 701 498 701 426.8 701C355.7 701 284.3 701 213.2 701C142 701 71 701 35.5 701L0 701Z" fill="#665191"></path></svg>