<svg id="visual" viewBox="0 0 1920 700" width="1920" height="700" xmlns="http://www.w3.org/2000/svg" xmlns:xlink="http://www.w3.org/1999/xlink" version="1.1"><path d="M0 386L45.7 381.8C91.3 377.7 182.7 369.3 274.2 371C365.7 372.7 457.3 384.3 548.8 393.8C640.3 403.3 731.7 410.7 823 418.5C914.3 426.3 1005.7 434.7 1097 414.7C1188.3 394.7 1279.7 346.3 1371.2 335.7C1462.7 325 1554.3 352 1645.8 364.7C1737.3 377.3 1828.7 375.7 1874.3 374.8L1920 374L1920 701L1874.3 701C1828.7 701 1737.3 701 1645.8 701C1554.3 701 1462.7 701 1371.2 701C1279.7 701 1188.3 701 1097 701C1005.7 701 914.3 701 823 701C731.7 701 640.3 701 548.8 701C457.3 701 365.7 701 274.2 701C182.7 701 91.3 701 45.7 701L0 701Z" fill="#ff6f61"></path><path d="M0 392L45.7 400.2C91.3 408.3 182.7 424.7 274.2 430C365.7 435.3 457.3 429.7 548.8 439.8C640.3 450 731.7 476 823 465.8C914.3 455.7 1005.7 409.3 1097 401.3C1188.3 393.3 1279.7 423.7 1371.2 429.7C1462.7 435.7 1554.3 417.3 1645.8 402.7C1737.3 388 1828.7 377 1874.3 371.5L1920 366L1920 701L1874.3 701C1828.7 701 1737.3 701 1645.8 701C1554.3 701 1462.7 701 1371.2 701C1279.7 701 1188.3 701 1097 701C1005.7 701 914.3 701 823 701C731.7 701 640.3 701 548.8 701C457.3 701 365.7 701 274.2 701C182.7 701 91.3 701 45.7 701L0 701Z" fill="#e95c7b"></path><path d="M0 545L45.7 544.7C91.3 544.3 182.7 543.7 274.2 537C365.7 530.3 457.3 517.7 548.8 499.7C640.3 481.7 731.7 458.3 823 464.8C914.3 471.3 1005.7 507.7 1097 522.3C1188.3 537 1279.7 530 1371.2 527.5C1462.7 525 1554.3 527 1645.8 529.3C1737.3 531.7 1828.7 534.3 1874.3 535.7L1920 537L1920 701L1874.3 701C1828.7 701 1737.3 701 1645.8 701C1554.3 701 1462.7 701 1371.2 701C1279.7 701 1188.3 701 1097 701C1005.7 701 914.3 701 823 701C731.7 701 640.3 701 548.8 701C457.3 701 365.7 701 274.2 701C182.7 701 91.3 701 45.7 701L0 701Z" fill="#c5548d"></path><path d="M0 524L45.7 535C91.3 546 182.7 568 274.2 574.3C365.7 580.7 457.3 571.3 548.8 570.7C640.3 570 731.7 578 823 570.7C914.3 563.3 1005.7 540.7 1097 529.2C1188.3 517.7 1279.7 517.3 1371.2 520.3C1462.7 523.3 1554.3 529.7 1645.8 541.2C1737.3 552.7 1828.7 569.3 1874.3 577.7L1920 586L1920 701L1874.3 701C1828.7 701 1737.3 701 1645.8 701C1554.3 701 1462.7 701 1371.2 701C1279.7 701 1188.3 701 1097 701C1005.7 701 914.3 701 823 701C731.7 701 640.3 701 548.8 701C457.3 701 365.7 701 274.2 701C182.7 701 91.3 701 45.7 701L0 701Z" fill="#985395"></path><path d="M0 631L45.7 625.7C91.3 620.3 182.7 609.7 274.2 606.5C365.7 603.3 457.3 607.7 548.8 604.7C640.3 601.7 731.7 591.3 823 593.7C914.3 596 1005.7 611 1097 622.7C1188.3 634.3 1279.7 642.7 1371.2 645.3C1462.7 648 1554.3 645 1645.8 638C1737.3 631 1828.7 620 1874.3 614.5L1920 609L1920 701L1874.3 701C1828.7 701 1737.3 701 1645.8 701C1554.3 701 1462.7 701 1371.2 701C1279.7 701 1188.3 701 1097 701C1005.7 701 914.3 701 823 701C731.7 701 640.3 701 548.8 701C457.3 701 365.7 701 274.2 701C182.7 701 91.3 701 45.7 701L0 701Z" fill="#665191"></path></svg>