<svg id="visual" viewBox="0 0 900 600" width="900" height="600" xmlns="http://www.w3.org/2000/svg" xmlns:xlink="http://www.w3.org/1999/xlink" version="1.1"><path d="M0 475L21.5 475.5C43 476 86 477 128.8 481.8C171.7 486.7 214.3 495.3 257.2 493C300 490.7 343 477.3 385.8 473.5C428.7 469.7 471.3 475.3 514.2 481.7C557 488 600 495 642.8 496C685.7 497 728.3 492 771.2 490.5C814 489 857 491 878.5 492L900 493L900 601L878.5 601C857 601 814 601 771.2 601C728.3 601 685.7 601 642.8 601C600 601 557 601 514.2 601C471.3 601 428.7 601 385.8 601C343 601 300 601 257.2 601C214.3 601 171.7 601 128.8 601C86 601 43 601 21.5 601L0 601Z" fill="#fa7268"></path><path d="M0 505L21.5 505C43 505 86 505 128.8 508.7C171.7 512.3 214.3 519.7 257.2 521.7C300 523.7 343 520.3 385.8 518.5C428.7 516.7 471.3 516.3 514.2 514.8C557 513.3 600 510.7 642.8 507C685.7 503.3 728.3 498.7 771.2 500.7C814 502.7 857 511.3 878.5 515.7L900 520L900 601L878.5 601C857 601 814 601 771.2 601C728.3 601 685.7 601 642.8 601C600 601 557 601 514.2 601C471.3 601 428.7 601 385.8 601C343 601 300 601 257.2 601C214.3 601 171.7 601 128.8 601C86 601 43 601 21.5 601L0 601Z" fill="#e35f7e"></path><path d="M0 534L21.5 533.5C43 533 86 532 128.8 532.5C171.7 533 214.3 535 257.2 532C300 529 343 521 385.8 518.2C428.7 515.3 471.3 517.7 514.2 518.2C557 518.7 600 517.3 642.8 515.2C685.7 513 728.3 510 771.2 511.7C814 513.3 857 519.7 878.5 522.8L900 526L900 601L878.5 601C857 601 814 601 771.2 601C728.3 601 685.7 601 642.8 601C600 601 557 601 514.2 601C471.3 601 428.7 601 385.8 601C343 601 300 601 257.2 601C214.3 601 171.7 601 128.8 601C86 601 43 601 21.5 601L0 601Z" fill="#c1568e"></path><path d="M0 553L21.5 552.8C43 552.7 86 552.3 128.8 554.2C171.7 556 214.3 560 257.2 559.2C300 558.3 343 552.7 385.8 551.5C428.7 550.3 471.3 553.7 514.2 555.8C557 558 600 559 642.8 557.2C685.7 555.3 728.3 550.7 771.2 548.3C814 546 857 546 878.5 546L900 546L900 601L878.5 601C857 601 814 601 771.2 601C728.3 601 685.7 601 642.8 601C600 601 557 601 514.2 601C471.3 601 428.7 601 385.8 601C343 601 300 601 257.2 601C214.3 601 171.7 601 128.8 601C86 601 43 601 21.5 601L0 601Z" fill="#965395"></path><path d="M0 583L21.5 582.8C43 582.7 86 582.3 128.8 581C171.7 579.7 214.3 577.3 257.2 573.3C300 569.3 343 563.7 385.8 561.7C428.7 559.7 471.3 561.3 514.2 561.5C557 561.7 600 560.3 642.8 562.8C685.7 565.3 728.3 571.7 771.2 574.5C814 577.3 857 576.7 878.5 576.3L900 576L900 601L878.5 601C857 601 814 601 771.2 601C728.3 601 685.7 601 642.8 601C600 601 557 601 514.2 601C471.3 601 428.7 601 385.8 601C343 601 300 601 257.2 601C214.3 601 171.7 601 128.8 601C86 601 43 601 21.5 601L0 601Z" fill="#665191"></path></svg>