<svg id="visual" viewBox="0 0 900 600" width="900" height="600" xmlns="http://www.w3.org/2000/svg" xmlns:xlink="http://www.w3.org/1999/xlink" version="1.1"><path d="M0 418L16.7 427.8C33.3 437.7 66.7 457.3 100 460.2C133.3 463 166.7 449 200 448.2C233.3 447.3 266.7 459.7 300 466.2C333.3 472.7 366.7 473.3 400 468.2C433.3 463 466.7 452 500 442.5C533.3 433 566.7 425 600 430.5C633.3 436 666.7 455 700 453.7C733.3 452.3 766.7 430.7 800 420.8C833.3 411 866.7 413 883.3 414L900 415L900 601L883.3 601C866.7 601 833.3 601 800 601C766.7 601 733.3 601 700 601C666.7 601 633.3 601 600 601C566.7 601 533.3 601 500 601C466.7 601 433.3 601 400 601C366.7 601 333.3 601 300 601C266.7 601 233.3 601 200 601C166.7 601 133.3 601 100 601C66.7 601 33.3 601 16.7 601L0 601Z" fill="#ff6f61"></path><path d="M0 454L16.7 452.3C33.3 450.7 66.7 447.3 100 453.3C133.3 459.3 166.7 474.7 200 476.2C233.3 477.7 266.7 465.3 300 465.7C333.3 466 366.7 479 400 486.5C433.3 494 466.7 496 500 490.8C533.3 485.7 566.7 473.3 600 464.2C633.3 455 666.7 449 700 453.5C733.3 458 766.7 473 800 482.5C833.3 492 866.7 496 883.3 498L900 500L900 601L883.3 601C866.7 601 833.3 601 800 601C766.7 601 733.3 601 700 601C666.7 601 633.3 601 600 601C566.7 601 533.3 601 500 601C466.7 601 433.3 601 400 601C366.7 601 333.3 601 300 601C266.7 601 233.3 601 200 601C166.7 601 133.3 601 100 601C66.7 601 33.3 601 16.7 601L0 601Z" fill="#e95c7b"></path><path d="M0 517L16.7 510.3C33.3 503.7 66.7 490.3 100 489.3C133.3 488.3 166.7 499.7 200 506.8C233.3 514 266.7 517 300 512.8C333.3 508.7 366.7 497.3 400 489.2C433.3 481 466.7 476 500 479.5C533.3 483 566.7 495 600 501.2C633.3 507.3 666.7 507.7 700 501.5C733.3 495.3 766.7 482.7 800 481.3C833.3 480 866.7 490 883.3 495L900 500L900 601L883.3 601C866.7 601 833.3 601 800 601C766.7 601 733.3 601 700 601C666.7 601 633.3 601 600 601C566.7 601 533.3 601 500 601C466.7 601 433.3 601 400 601C366.7 601 333.3 601 300 601C266.7 601 233.3 601 200 601C166.7 601 133.3 601 100 601C66.7 601 33.3 601 16.7 601L0 601Z" fill="#c5548d"></path><path d="M0 548L16.7 548.5C33.3 549 66.7 550 100 543.5C133.3 537 166.7 523 200 521C233.3 519 266.7 529 300 528.3C333.3 527.7 366.7 516.3 400 514C433.3 511.7 466.7 518.3 500 520.2C533.3 522 566.7 519 600 521.5C633.3 524 666.7 532 700 535.2C733.3 538.3 766.7 536.7 800 532.7C833.3 528.7 866.7 522.3 883.3 519.2L900 516L900 601L883.3 601C866.7 601 833.3 601 800 601C766.7 601 733.3 601 700 601C666.7 601 633.3 601 600 601C566.7 601 533.3 601 500 601C466.7 601 433.3 601 400 601C366.7 601 333.3 601 300 601C266.7 601 233.3 601 200 601C166.7 601 133.3 601 100 601C66.7 601 33.3 601 16.7 601L0 601Z" fill="#985395"></path><path d="M0 572L16.7 572.2C33.3 572.3 66.7 572.7 100 570.8C133.3 569 166.7 565 200 561.2C233.3 557.3 266.7 553.7 300 550.7C333.3 547.7 366.7 545.3 400 544.3C433.3 543.3 466.7 543.7 500 545.8C533.3 548 566.7 552 600 553.5C633.3 555 666.7 554 700 554.5C733.3 555 766.7 557 800 558.5C833.3 560 866.7 561 883.3 561.5L900 562L900 601L883.3 601C866.7 601 833.3 601 800 601C766.7 601 733.3 601 700 601C666.7 601 633.3 601 600 601C566.7 601 533.3 601 500 601C466.7 601 433.3 601 400 601C366.7 601 333.3 601 300 601C266.7 601 233.3 601 200 601C166.7 601 133.3 601 100 601C66.7 601 33.3 601 16.7 601L0 601Z" fill="#665191"></path></svg>